<?xml version="1.0" encoding="UTF-8"?>
<svg width="512" height="512" viewBox="0 0 512 512" fill="none" xmlns="http://www.w3.org/2000/svg">
  <!-- Cool background gradient -->
  <rect width="512" height="512" rx="128" fill="url(#paint0_linear)" />
  
  <!-- Digital pulse wave element -->
  <path d="M96 256 L160 256 L192 200 L240 312 L288 200 L336 312 L368 256 L416 256" 
        stroke="#E8E8E8" stroke-width="24" stroke-linecap="round" stroke-linejoin="round" />
  
  <!-- Crescent symbol (from Pakistan flag) -->
  <path d="M352 176 A112 112 0 1 1 352 336 A84 84 0 1 0 352 176Z" 
        fill="#FFFFFF" />
  
  <!-- Star symbol (from Pakistan flag) -->
  <path d="M384 200 L396 232 L430 232 L404 252 L414 284 L384 260 L354 284 L364 252 L338 232 L372 232 L384 200Z" 
        fill="#FFFFFF" />
  
  <!-- Digital circuit accent lines -->
  <path d="M96 156 L128 156 L144 172 L368 172" stroke="#8DE656" stroke-width="6" stroke-linecap="round" />
  <path d="M96 356 L128 356 L144 340 L368 340" stroke="#8DE656" stroke-width="6" stroke-linecap="round" />
  
  <defs>
    <!-- Gradient definition -->
    <linearGradient id="paint0_linear" x1="0" y1="0" x2="512" y2="512" gradientUnits="userSpaceOnUse">
      <stop offset="0" stop-color="#004C00" />
      <stop offset="1" stop-color="#01411C" />
    </linearGradient>
  </defs>
</svg> 